<mxfile host="app.diagrams.net" agent="Mozilla/5.0 (Windows NT 10.0; Win64; x64) AppleWebKit/537.36 (KHTML, like Gecko) Chrome/131.0.0.0 Safari/537.36 Edg/131.0.0.0" version="25.0.3">
  <diagram name="Page-1" id="ZlTzh5x4ZdJ_y5uhiSFh">
    <mxGraphModel dx="946" dy="708" grid="1" gridSize="10" guides="1" tooltips="1" connect="1" arrows="1" fold="1" page="1" pageScale="1" pageWidth="850" pageHeight="1100" math="0" shadow="0">
      <root>
        <mxCell id="0" />
        <mxCell id="1" parent="0" />
        <mxCell id="n6YyE4_OwmN7KMoAc9s9-27" style="edgeStyle=orthogonalEdgeStyle;rounded=0;orthogonalLoop=1;jettySize=auto;html=1;exitX=0.5;exitY=1;exitDx=0;exitDy=0;exitPerimeter=0;entryX=0.5;entryY=0;entryDx=0;entryDy=0;" edge="1" parent="1" source="n6YyE4_OwmN7KMoAc9s9-1" target="n6YyE4_OwmN7KMoAc9s9-2">
          <mxGeometry relative="1" as="geometry" />
        </mxCell>
        <mxCell id="n6YyE4_OwmN7KMoAc9s9-1" value="start" style="strokeWidth=2;html=1;shape=mxgraph.flowchart.start_1;whiteSpace=wrap;" vertex="1" parent="1">
          <mxGeometry x="375" y="20" width="100" height="60" as="geometry" />
        </mxCell>
        <mxCell id="n6YyE4_OwmN7KMoAc9s9-2" value="int num" style="shape=parallelogram;html=1;strokeWidth=2;perimeter=parallelogramPerimeter;whiteSpace=wrap;rounded=1;arcSize=12;size=0.23;" vertex="1" parent="1">
          <mxGeometry x="375" y="120" width="100" height="60" as="geometry" />
        </mxCell>
        <mxCell id="n6YyE4_OwmN7KMoAc9s9-3" value="int i = 0" style="shape=parallelogram;html=1;strokeWidth=2;perimeter=parallelogramPerimeter;whiteSpace=wrap;rounded=1;arcSize=12;size=0.23;" vertex="1" parent="1">
          <mxGeometry x="375" y="360" width="100" height="60" as="geometry" />
        </mxCell>
        <mxCell id="n6YyE4_OwmN7KMoAc9s9-5" style="edgeStyle=orthogonalEdgeStyle;rounded=0;orthogonalLoop=1;jettySize=auto;html=1;exitX=1;exitY=0.5;exitDx=0;exitDy=0;exitPerimeter=0;" edge="1" parent="1" source="n6YyE4_OwmN7KMoAc9s9-4">
          <mxGeometry relative="1" as="geometry">
            <mxPoint x="620" y="270" as="targetPoint" />
          </mxGeometry>
        </mxCell>
        <mxCell id="n6YyE4_OwmN7KMoAc9s9-11" style="edgeStyle=orthogonalEdgeStyle;rounded=0;orthogonalLoop=1;jettySize=auto;html=1;exitX=0.5;exitY=1;exitDx=0;exitDy=0;exitPerimeter=0;entryX=0.5;entryY=0;entryDx=0;entryDy=0;" edge="1" parent="1" source="n6YyE4_OwmN7KMoAc9s9-4" target="n6YyE4_OwmN7KMoAc9s9-3">
          <mxGeometry relative="1" as="geometry" />
        </mxCell>
        <mxCell id="n6YyE4_OwmN7KMoAc9s9-4" value="num &amp;lt;= 1" style="strokeWidth=2;html=1;shape=mxgraph.flowchart.decision;whiteSpace=wrap;" vertex="1" parent="1">
          <mxGeometry x="378" y="220" width="95" height="100" as="geometry" />
        </mxCell>
        <mxCell id="n6YyE4_OwmN7KMoAc9s9-24" style="edgeStyle=orthogonalEdgeStyle;rounded=0;orthogonalLoop=1;jettySize=auto;html=1;exitX=1;exitY=0.5;exitDx=0;exitDy=0;" edge="1" parent="1" source="n6YyE4_OwmN7KMoAc9s9-6" target="n6YyE4_OwmN7KMoAc9s9-23">
          <mxGeometry relative="1" as="geometry" />
        </mxCell>
        <mxCell id="n6YyE4_OwmN7KMoAc9s9-6" value="&quot;khong la so nguyen to&quot;" style="shape=parallelogram;html=1;strokeWidth=2;perimeter=parallelogramPerimeter;whiteSpace=wrap;rounded=1;arcSize=12;size=0.23;" vertex="1" parent="1">
          <mxGeometry x="610" y="240" width="100" height="60" as="geometry" />
        </mxCell>
        <mxCell id="n6YyE4_OwmN7KMoAc9s9-21" style="edgeStyle=orthogonalEdgeStyle;rounded=0;orthogonalLoop=1;jettySize=auto;html=1;exitX=1;exitY=0.5;exitDx=0;exitDy=0;exitPerimeter=0;" edge="1" parent="1" source="n6YyE4_OwmN7KMoAc9s9-7">
          <mxGeometry relative="1" as="geometry">
            <mxPoint x="520" y="520" as="targetPoint" />
          </mxGeometry>
        </mxCell>
        <mxCell id="n6YyE4_OwmN7KMoAc9s9-7" value="i * i &amp;lt;= num" style="strokeWidth=2;html=1;shape=mxgraph.flowchart.decision;whiteSpace=wrap;" vertex="1" parent="1">
          <mxGeometry x="375" y="470" width="100" height="100" as="geometry" />
        </mxCell>
        <mxCell id="n6YyE4_OwmN7KMoAc9s9-12" style="edgeStyle=orthogonalEdgeStyle;rounded=0;orthogonalLoop=1;jettySize=auto;html=1;exitX=0.5;exitY=1;exitDx=0;exitDy=0;entryX=0.5;entryY=0;entryDx=0;entryDy=0;entryPerimeter=0;" edge="1" parent="1" source="n6YyE4_OwmN7KMoAc9s9-3" target="n6YyE4_OwmN7KMoAc9s9-7">
          <mxGeometry relative="1" as="geometry" />
        </mxCell>
        <mxCell id="n6YyE4_OwmN7KMoAc9s9-13" value="i++" style="rounded=1;whiteSpace=wrap;html=1;absoluteArcSize=1;arcSize=14;strokeWidth=2;" vertex="1" parent="1">
          <mxGeometry x="375" y="780" width="100" height="60" as="geometry" />
        </mxCell>
        <mxCell id="n6YyE4_OwmN7KMoAc9s9-16" style="edgeStyle=orthogonalEdgeStyle;rounded=0;orthogonalLoop=1;jettySize=auto;html=1;exitX=1;exitY=0.5;exitDx=0;exitDy=0;exitPerimeter=0;" edge="1" parent="1" source="n6YyE4_OwmN7KMoAc9s9-15" target="n6YyE4_OwmN7KMoAc9s9-17">
          <mxGeometry relative="1" as="geometry">
            <mxPoint x="530" y="680" as="targetPoint" />
          </mxGeometry>
        </mxCell>
        <mxCell id="n6YyE4_OwmN7KMoAc9s9-20" style="edgeStyle=orthogonalEdgeStyle;rounded=0;orthogonalLoop=1;jettySize=auto;html=1;exitX=0.5;exitY=1;exitDx=0;exitDy=0;exitPerimeter=0;entryX=0.5;entryY=0;entryDx=0;entryDy=0;" edge="1" parent="1" source="n6YyE4_OwmN7KMoAc9s9-15" target="n6YyE4_OwmN7KMoAc9s9-13">
          <mxGeometry relative="1" as="geometry" />
        </mxCell>
        <mxCell id="n6YyE4_OwmN7KMoAc9s9-15" value="num % i == 0" style="strokeWidth=2;html=1;shape=mxgraph.flowchart.decision;whiteSpace=wrap;" vertex="1" parent="1">
          <mxGeometry x="375" y="630" width="100" height="100" as="geometry" />
        </mxCell>
        <mxCell id="n6YyE4_OwmN7KMoAc9s9-17" value="&quot;khong la so nguyen to&quot;" style="shape=parallelogram;html=1;strokeWidth=2;perimeter=parallelogramPerimeter;whiteSpace=wrap;rounded=1;arcSize=12;size=0.23;" vertex="1" parent="1">
          <mxGeometry x="610" y="650" width="100" height="60" as="geometry" />
        </mxCell>
        <mxCell id="n6YyE4_OwmN7KMoAc9s9-18" style="edgeStyle=orthogonalEdgeStyle;rounded=0;orthogonalLoop=1;jettySize=auto;html=1;exitX=0;exitY=0.5;exitDx=0;exitDy=0;entryX=0;entryY=0.5;entryDx=0;entryDy=0;entryPerimeter=0;" edge="1" parent="1" source="n6YyE4_OwmN7KMoAc9s9-13" target="n6YyE4_OwmN7KMoAc9s9-7">
          <mxGeometry relative="1" as="geometry" />
        </mxCell>
        <mxCell id="n6YyE4_OwmN7KMoAc9s9-19" style="edgeStyle=orthogonalEdgeStyle;rounded=0;orthogonalLoop=1;jettySize=auto;html=1;exitX=0.5;exitY=1;exitDx=0;exitDy=0;exitPerimeter=0;entryX=0.495;entryY=0.07;entryDx=0;entryDy=0;entryPerimeter=0;" edge="1" parent="1" source="n6YyE4_OwmN7KMoAc9s9-7" target="n6YyE4_OwmN7KMoAc9s9-15">
          <mxGeometry relative="1" as="geometry" />
        </mxCell>
        <mxCell id="n6YyE4_OwmN7KMoAc9s9-25" style="edgeStyle=orthogonalEdgeStyle;rounded=0;orthogonalLoop=1;jettySize=auto;html=1;exitX=1;exitY=0.5;exitDx=0;exitDy=0;" edge="1" parent="1" source="n6YyE4_OwmN7KMoAc9s9-22" target="n6YyE4_OwmN7KMoAc9s9-23">
          <mxGeometry relative="1" as="geometry" />
        </mxCell>
        <mxCell id="n6YyE4_OwmN7KMoAc9s9-22" value="&quot;la so nguyen to&quot;" style="shape=parallelogram;html=1;strokeWidth=2;perimeter=parallelogramPerimeter;whiteSpace=wrap;rounded=1;arcSize=12;size=0.23;" vertex="1" parent="1">
          <mxGeometry x="510" y="490" width="130" height="60" as="geometry" />
        </mxCell>
        <mxCell id="n6YyE4_OwmN7KMoAc9s9-23" value="end" style="strokeWidth=2;html=1;shape=mxgraph.flowchart.start_1;whiteSpace=wrap;" vertex="1" parent="1">
          <mxGeometry x="760" y="490" width="100" height="60" as="geometry" />
        </mxCell>
        <mxCell id="n6YyE4_OwmN7KMoAc9s9-26" style="edgeStyle=orthogonalEdgeStyle;rounded=0;orthogonalLoop=1;jettySize=auto;html=1;exitX=1;exitY=0.5;exitDx=0;exitDy=0;entryX=0.5;entryY=1;entryDx=0;entryDy=0;entryPerimeter=0;" edge="1" parent="1" source="n6YyE4_OwmN7KMoAc9s9-17" target="n6YyE4_OwmN7KMoAc9s9-23">
          <mxGeometry relative="1" as="geometry" />
        </mxCell>
        <mxCell id="n6YyE4_OwmN7KMoAc9s9-28" style="edgeStyle=orthogonalEdgeStyle;rounded=0;orthogonalLoop=1;jettySize=auto;html=1;exitX=0.5;exitY=1;exitDx=0;exitDy=0;entryX=0.5;entryY=0;entryDx=0;entryDy=0;entryPerimeter=0;" edge="1" parent="1" source="n6YyE4_OwmN7KMoAc9s9-2" target="n6YyE4_OwmN7KMoAc9s9-4">
          <mxGeometry relative="1" as="geometry" />
        </mxCell>
      </root>
    </mxGraphModel>
  </diagram>
</mxfile>
